HIERARCHY
ROOT Hips
{
	OFFSET 0.000000 97.167313 0.000000
	CHANNELS 6 Xposition Yposition Zposition Xrotation Yrotation Zrotation
	JOINT Spine
	{
		OFFSET 0.000000 13.784798 0.064400
		CHANNELS 3 Xrotation Yrotation Zrotation
		JOINT Spine1
		{
			OFFSET 0.000000 12.037903 0.404700
			CHANNELS 3 Xrotation Yrotation Zrotation
			JOINT Spine2
			{
				OFFSET 0.000000 17.795601 0.420200
				CHANNELS 3 Xrotation Yrotation Zrotation
				JOINT Neck
				{
					OFFSET 0.000000 39.131302 11.954600
					CHANNELS 3 Xrotation Yrotation Zrotation
					JOINT Head
					{
						OFFSET 0.000000 14.456192 15.627699
						CHANNELS 3 Xrotation Yrotation Zrotation
						JOINT HeadTop_End
						{
							OFFSET 0.000000 15.703506 7.603401
							CHANNELS 3 Xrotation Yrotation Zrotation
							End Site
							{
								OFFSET 0.000000 17.447403 0.000000
							}
						}
					}
				}
				JOINT LeftShoulder
				{
					OFFSET 17.399500 24.608795 1.168800
					CHANNELS 3 Xrotation Yrotation Zrotation
					JOINT LeftArm
					{
						OFFSET 18.980635 5.765305 1.818600
						CHANNELS 3 Xrotation Yrotation Zrotation
						JOINT LeftForeArm
						{
							OFFSET 49.290169 0.000000 0.000000
							CHANNELS 3 Xrotation Yrotation Zrotation
							JOINT LeftHand
							{
								OFFSET 31.562012 0.000000 0.000000
								CHANNELS 3 Xrotation Yrotation Zrotation
								JOINT LeftHandThumb1
								{
									OFFSET 6.133995 -4.388519 7.076070
									CHANNELS 3 Xrotation Yrotation Zrotation
									JOINT LeftHandThumb2
									{
										OFFSET 6.037666 -3.485840 3.485847
										CHANNELS 3 Xrotation Yrotation Zrotation
										JOINT LeftHandThumb3
										{
											OFFSET 6.496506 -3.750763 3.750761
											CHANNELS 3 Xrotation Yrotation Zrotation
											JOINT LeftHandThumb4
											{
												OFFSET 5.616882 -3.242905 3.242910
												CHANNELS 3 Xrotation Yrotation Zrotation
												End Site
												{
													OFFSET -1.254608 7.132141 0.375429
												}
											}
										}
									}
								}
								JOINT LeftHandPinky1
								{
									OFFSET 18.920792 -0.453171 -11.426712
									CHANNELS 3 Xrotation Yrotation Zrotation
									JOINT LeftHandPinky2
									{
										OFFSET 4.919586 0.000000 0.000000
										CHANNELS 3 Xrotation Yrotation Zrotation
										JOINT LeftHandPinky3
										{
											OFFSET 5.233047 0.000000 0.000000
											CHANNELS 3 Xrotation Yrotation Zrotation
											JOINT LeftHandPinky4
											{
												OFFSET 5.571716 0.000000 0.000000
												CHANNELS 3 Xrotation Yrotation Zrotation
												End Site
												{
													OFFSET -3.459808 4.342407 -0.466164
												}
											}
										}
									}
								}
								JOINT LeftHandRing1
								{
									OFFSET 22.726120 -0.094986 -6.500475
									CHANNELS 3 Xrotation Yrotation Zrotation
									JOINT LeftHandRing2
									{
										OFFSET 6.408615 0.000000 0.000000
										CHANNELS 3 Xrotation Yrotation Zrotation
										JOINT LeftHandRing3
										{
											OFFSET 6.150223 0.000000 0.000000
											CHANNELS 3 Xrotation Yrotation Zrotation
											JOINT LeftHandRing4
											{
												OFFSET 6.145386 0.000000 0.000000
												CHANNELS 3 Xrotation Yrotation Zrotation
												End Site
												{
													OFFSET -3.671402 4.923981 -0.202372
												}
											}
										}
									}
								}
								JOINT LeftHandMiddle1
								{
									OFFSET 23.373947 0.000000 0.000001
									CHANNELS 3 Xrotation Yrotation Zrotation
									JOINT LeftHandMiddle2
									{
										OFFSET 6.996567 0.000000 0.000000
										CHANNELS 3 Xrotation Yrotation Zrotation
										JOINT LeftHandMiddle3
										{
											OFFSET 7.015945 0.000000 0.000000
											CHANNELS 3 Xrotation Yrotation Zrotation
											JOINT LeftHandMiddle4
											{
												OFFSET 7.721573 0.000000 0.000000
												CHANNELS 3 Xrotation Yrotation Zrotation
												End Site
												{
													OFFSET -4.651108 6.158463 0.251582
												}
											}
										}
									}
								}
								JOINT LeftHandIndex1
								{
									OFFSET 21.310577 -0.490082 6.209344
									CHANNELS 3 Xrotation Yrotation Zrotation
									JOINT LeftHandIndex2
									{
										OFFSET 7.536453 0.000000 0.000000
										CHANNELS 3 Xrotation Yrotation Zrotation
										JOINT LeftHandIndex3
										{
											OFFSET 7.512344 0.000000 0.000000
											CHANNELS 3 Xrotation Yrotation Zrotation
											JOINT LeftHandIndex4
											{
												OFFSET 10.212402 0.000000 0.000001
												CHANNELS 3 Xrotation Yrotation Zrotation
												End Site
												{
													OFFSET -5.180801 8.690506 1.388433
												}
											}
										}
									}
								}
							}
						}
					}
				}
				JOINT RightShoulder
				{
					OFFSET -17.399500 24.608795 1.168800
					CHANNELS 3 Xrotation Yrotation Zrotation
					JOINT RightArm
					{
						OFFSET -18.980635 5.765305 1.818600
						CHANNELS 3 Xrotation Yrotation Zrotation
						JOINT RightForeArm
						{
							OFFSET -49.290169 0.000000 0.000000
							CHANNELS 3 Xrotation Yrotation Zrotation
							JOINT RightHand
							{
								OFFSET -31.562012 0.000000 0.000000
								CHANNELS 3 Xrotation Yrotation Zrotation
								JOINT RightHandThumb1
								{
									OFFSET -6.133995 -4.388519 7.076070
									CHANNELS 3 Xrotation Yrotation Zrotation
									JOINT RightHandThumb2
									{
										OFFSET -6.037666 -3.485840 3.485847
										CHANNELS 3 Xrotation Yrotation Zrotation
										JOINT RightHandThumb3
										{
											OFFSET -6.496506 -3.750763 3.750761
											CHANNELS 3 Xrotation Yrotation Zrotation
											JOINT RightHandThumb4
											{
												OFFSET -5.616882 -3.242905 3.242910
												CHANNELS 3 Xrotation Yrotation Zrotation
												End Site
												{
													OFFSET 1.254608 7.132141 0.375429
												}
											}
										}
									}
								}
								JOINT RightHandIndex1
								{
									OFFSET -21.310577 -0.490082 6.209344
									CHANNELS 3 Xrotation Yrotation Zrotation
									JOINT RightHandIndex2
									{
										OFFSET -7.536453 0.000000 0.000000
										CHANNELS 3 Xrotation Yrotation Zrotation
										JOINT RightHandIndex3
										{
											OFFSET -7.512344 0.000000 0.000000
											CHANNELS 3 Xrotation Yrotation Zrotation
											JOINT RightHandIndex4
											{
												OFFSET -10.212402 0.000000 0.000001
												CHANNELS 3 Xrotation Yrotation Zrotation
												End Site
												{
													OFFSET 5.180801 8.690506 1.388433
												}
											}
										}
									}
								}
								JOINT RightHandMiddle1
								{
									OFFSET -23.373947 0.000000 0.000001
									CHANNELS 3 Xrotation Yrotation Zrotation
									JOINT RightHandMiddle2
									{
										OFFSET -6.996567 0.000000 0.000000
										CHANNELS 3 Xrotation Yrotation Zrotation
										JOINT RightHandMiddle3
										{
											OFFSET -7.015945 0.000000 0.000000
											CHANNELS 3 Xrotation Yrotation Zrotation
											JOINT RightHandMiddle4
											{
												OFFSET -7.721573 0.000000 0.000000
												CHANNELS 3 Xrotation Yrotation Zrotation
												End Site
												{
													OFFSET 4.651108 6.158463 0.251582
												}
											}
										}
									}
								}
								JOINT RightHandRing1
								{
									OFFSET -22.726120 -0.094986 -6.500475
									CHANNELS 3 Xrotation Yrotation Zrotation
									JOINT RightHandRing2
									{
										OFFSET -6.408615 0.000000 0.000000
										CHANNELS 3 Xrotation Yrotation Zrotation
										JOINT RightHandRing3
										{
											OFFSET -6.150223 0.000000 0.000000
											CHANNELS 3 Xrotation Yrotation Zrotation
											JOINT RightHandRing4
											{
												OFFSET -6.145386 0.000000 0.000000
												CHANNELS 3 Xrotation Yrotation Zrotation
												End Site
												{
													OFFSET 3.671402 4.923981 -0.202372
												}
											}
										}
									}
								}
								JOINT RightHandPinky1
								{
									OFFSET -18.920792 -0.453171 -11.426712
									CHANNELS 3 Xrotation Yrotation Zrotation
									JOINT RightHandPinky2
									{
										OFFSET -4.919586 0.000000 0.000000
										CHANNELS 3 Xrotation Yrotation Zrotation
										JOINT RightHandPinky3
										{
											OFFSET -5.233047 0.000000 0.000000
											CHANNELS 3 Xrotation Yrotation Zrotation
											JOINT RightHandPinky4
											{
												OFFSET -5.571716 0.000000 0.000000
												CHANNELS 3 Xrotation Yrotation Zrotation
												End Site
												{
													OFFSET 3.459808 4.342407 -0.466164
												}
											}
										}
									}
								}
							}
						}
					}
				}
			}
		}
	}
	JOINT LeftUpLeg
	{
		OFFSET 19.899099 -7.885101 -3.429500
		CHANNELS 3 Xrotation Yrotation Zrotation
		JOINT LeftLeg
		{
			OFFSET 1.745560 -36.997807 10.304700
			CHANNELS 3 Xrotation Yrotation Zrotation
			JOINT LeftFoot
			{
				OFFSET -1.745558 -29.803308 -13.615400
				CHANNELS 3 Xrotation Yrotation Zrotation
				JOINT LeftToeBase
				{
					OFFSET 1.181900 -18.539904 15.226099
					CHANNELS 3 Xrotation Yrotation Zrotation
					JOINT LeftToe_End
					{
						OFFSET -0.863701 1.402801 16.534700
						CHANNELS 3 Xrotation Yrotation Zrotation
						End Site
						{
							OFFSET 0.000000 16.616566 0.000000
						}
					}
				}
			}
		}
	}
	JOINT RightUpLeg
	{
		OFFSET -19.899099 -7.885101 -3.429500
		CHANNELS 3 Xrotation Yrotation Zrotation
		JOINT RightLeg
		{
			OFFSET -1.745560 -36.997807 10.304700
			CHANNELS 3 Xrotation Yrotation Zrotation
			JOINT RightFoot
			{
				OFFSET 1.745558 -29.803308 -13.615400
				CHANNELS 3 Xrotation Yrotation Zrotation
				JOINT RightToeBase
				{
					OFFSET -1.181900 -18.539904 15.226099
					CHANNELS 3 Xrotation Yrotation Zrotation
					JOINT RightToe_End
					{
						OFFSET 0.863701 1.402801 16.534700
						CHANNELS 3 Xrotation Yrotation Zrotation
						End Site
						{
							OFFSET 0.000000 16.616566 0.000000
						}
					}
				}
			}
		}
	}
}
MOTION
Frames: 4
Frame Time: 0.033333
-0.232098 83.614113 1.749578 5.883889 -18.221451 1.354974 3.505016 -1.423875 2.343897 4.828625 -2.419271 0.835428 4.774607 -2.549371 0.869731 14.103099 11.903095 -15.971667 -23.528463 7.572679 4.972938 0.000000 0.000000 -0.000000 -0.057419 -8.759415 -0.061034 -55.250763 0.329376 -41.449392 11.538292 -65.829903 12.963367 -50.192820 12.354826 4.602097 17.551566 -5.699197 -12.932281 10.850527 26.127693 8.644751 20.926875 51.115869 0.218849 0.000000 -0.000001 -0.000003 10.099218 13.620819 -84.775277 0.868423 0.053965 -64.617544 1.140605 1.253552 -54.985171 -0.000000 0.000001 -0.000000 8.570139 2.155506 -75.142203 -0.198785 1.009045 -57.858621 0.443924 1.742024 -53.611015 -0.000001 0.000001 0.000002 7.505086 1.171480 -63.796187 1.807581 1.467047 -64.572950 0.119108 -0.921773 -43.277636 0.000001 -0.000000 0.000001 13.964039 1.187605 -55.028464 0.370920 1.153227 -65.468681 1.985483 2.139192 -57.676378 -0.000000 0.000003 0.000003 4.853436 7.760777 5.560740 -0.937444 -2.177212 61.844802 11.288193 18.945500 -3.985281 -0.441549 6.619813 5.830387 15.787335 -2.739124 -17.204854 -2.198299 -31.113547 7.361203 -6.566844 -4.138136 2.407588 -0.000001 -0.000001 -0.000003 2.366212 -3.659738 8.487071 -2.153857 -2.473493 18.672902 -1.905387 -4.825297 14.172890 -0.000003 -0.000003 -0.000001 -1.975687 -5.703075 13.662730 0.283435 -5.113144 26.987925 -0.654621 -1.220933 16.126077 0.000001 0.000001 -0.000004 -3.241875 -8.555431 11.765078 4.044518 -4.081728 33.264104 2.112275 -3.160230 15.594042 -0.000000 -0.000001 0.000002 -6.474863 -11.359822 23.259000 10.719367 -2.558809 34.822999 6.414186 -3.079523 15.310982 -0.000002 -0.000003 0.000004 -31.873983 10.221130 11.642489 56.668444 5.904809 -8.665589 1.626065 4.720492 0.117376 -28.559297 1.977220 -3.638797 -0.000000 0.000001 0.000000 -30.569007 17.978130 6.969101 43.956721 -5.606618 2.117396 -17.219687 -4.796111 1.775779 -3.480774 -0.003872 -0.000801 0.000000 -0.000001 -0.000000 
-0.219044 84.784843 7.927764 6.222444 -19.684769 1.825474 3.090272 -0.901702 2.337216 4.661804 -1.703946 0.613733 4.583562 -1.867860 0.617617 14.098018 11.904484 -15.970562 -23.532107 7.575688 4.974862 0.000001 -0.000000 -0.000000 -0.088546 -8.009808 0.134309 -54.062300 -0.297053 -41.145910 10.911450 -65.981116 12.371266 -50.179856 12.313627 4.686063 17.551563 -5.699199 -12.932281 10.850534 26.127695 8.644756 20.926868 51.115876 0.218844 0.000000 0.000001 -0.000003 10.099234 13.620835 -84.775270 0.868451 0.053943 -64.617551 1.140583 1.253572 -54.985181 -0.000000 0.000001 0.000003 8.570137 2.155508 -75.142196 -0.198801 1.009092 -57.858601 0.443948 1.742015 -53.611032 -0.000000 -0.000001 0.000005 7.516283 1.193443 -63.798693 1.807593 1.467052 -64.572943 0.119140 -0.921780 -43.277598 0.000001 -0.000000 0.000009 13.964074 1.187646 -55.028457 0.370904 1.153208 -65.468688 1.985514 2.139179 -57.676317 0.000001 0.000005 -0.000001 4.779684 8.356548 6.122935 -2.639780 0.741775 60.559544 18.953365 19.167246 -7.146745 -3.705180 1.299462 10.410302 15.787347 -2.739103 -17.204820 -2.463430 -30.788109 7.265002 -6.161006 -4.859216 2.283891 0.000001 0.000000 0.000002 2.792853 -3.676607 10.864131 -2.138628 -2.138949 21.578333 -2.025374 -4.522142 16.059334 -0.000002 -0.000001 0.000003 -1.588095 -5.605023 16.091700 0.214596 -5.114474 29.485408 -0.814193 -0.999657 18.333594 0.000001 -0.000000 -0.000004 -3.437798 -8.572155 14.269444 3.944087 -4.157712 35.334993 2.062868 -3.180186 18.330899 -0.000000 -0.000001 -0.000007 -7.205763 -11.514721 25.317182 10.184529 -2.822887 36.675998 6.341216 -3.209604 16.824528 -0.000001 -0.000000 0.000006 -37.570337 9.192112 15.018625 51.030256 6.917132 -10.341252 8.102472 4.488535 0.024169 -25.406287 1.605235 -2.208378 0.000000 0.000000 -0.000000 -23.038064 18.901447 4.239762 40.726239 -4.617399 2.166411 -21.417132 -4.278683 1.839369 -3.480773 -0.003515 -0.007090 0.000000 0.000000 -0.000000 
-0.107089 85.740158 14.014053 6.491494 -21.295314 2.094704 2.762498 -0.414948 2.609941 4.521026 -0.988303 0.414873 4.423016 -1.188434 0.390899 14.082559 11.913686 -15.968298 -23.552184 7.592160 4.975103 -0.000000 -0.000000 -0.000000 -0.123503 -7.249615 0.354071 -52.822897 -0.763440 -40.790965 9.945094 -66.147274 11.435239 -50.177022 12.123360 4.868114 17.551563 -5.699197 -12.932282 10.850535 26.127693 8.644753 20.926873 51.115869 0.218845 0.000001 -0.000003 -0.000003 10.099290 13.620842 -84.775304 0.868438 0.053956 -64.617578 1.140568 1.253544 -54.985202 -0.000000 0.000001 -0.000000 8.570184 2.155515 -75.142196 -0.198802 1.009099 -57.858621 0.443947 1.742007 -53.611046 -0.000000 -0.000001 0.000005 7.527522 1.215445 -63.801255 1.807552 1.467047 -64.572936 0.119182 -0.921767 -43.277602 -0.000000 0.000000 0.000004 13.964110 1.187631 -55.028481 0.370915 1.153208 -65.468688 1.985470 2.139180 -57.676330 -0.000000 0.000001 0.000001 4.620731 9.899201 6.254976 -4.280311 2.874197 59.554994 26.472565 19.193557 -11.007407 -7.150384 -2.755714 12.729990 15.787344 -2.739120 -17.204869 -2.748574 -30.437792 7.164144 -5.726808 -5.638636 2.157532 0.000001 0.000004 0.000000 3.256857 -3.704081 13.548402 -2.126445 -1.778185 24.830635 -2.136706 -4.191988 18.215232 -0.000000 -0.000001 0.000001 -1.167887 -5.500514 18.815807 0.141039 -5.115591 32.284252 -0.983479 -0.759495 20.815603 0.000001 0.000000 -0.000002 -3.646349 -8.591429 17.071745 3.835241 -4.237820 37.671140 2.010010 -3.202203 21.380299 -0.000001 0.000000 -0.000005 -7.991899 -11.669655 27.640609 9.603233 -3.092932 38.774718 6.261391 -3.346440 18.555037 -0.000002 0.000001 0.000007 -43.304366 8.477061 18.855736 46.000255 7.613299 -11.890505 14.561740 3.874022 1.377279 -18.087534 1.254981 -1.749720 -0.000000 0.000000 0.000000 -15.376183 19.732579 1.239287 36.342747 -3.735510 2.175718 -24.485130 -3.793345 2.158129 -3.480780 -0.002736 -0.019851 -0.000000 -0.000001 0.000000 
0.066999 87.036896 19.519413 6.558722 -22.994742 2.261375 2.542421 -0.089662 3.094179 4.491728 -0.337407 0.223441 4.384603 -0.577825 0.178089 14.047965 11.948918 -15.965740 -23.599531 7.632132 4.975745 0.000000 0.000000 -0.000000 -0.162752 -6.427788 0.711357 -51.748481 -0.933477 -40.221724 7.066083 -66.621993 8.578225 -50.254029 11.977367 5.599187 17.551566 -5.699199 -12.932279 10.850528 26.127688 8.644753 20.926877 51.115872 0.218845 -0.000000 0.000005 -0.000001 10.099252 13.620854 -84.775311 0.868456 0.053961 -64.617572 1.140592 1.253554 -54.985167 -0.000002 0.000001 0.000003 8.570135 2.155521 -75.142203 -0.198811 1.009073 -57.858614 0.443953 1.742001 -53.611009 0.000000 -0.000001 0.000003 7.538645 1.237432 -63.803823 1.807614 1.467057 -64.572943 0.119125 -0.921820 -43.277598 0.000000 -0.000001 0.000001 13.964082 1.187638 -55.028498 0.370904 1.153162 -65.468709 1.985491 2.139223 -57.676324 -0.000002 0.000005 0.000000 4.447124 11.469904 6.409692 -5.767458 5.261424 58.348318 33.132496 18.158526 -14.502230 -10.529803 -4.059760 11.544838 15.787333 -2.739102 -17.204849 -3.050165 -30.066906 7.060236 -5.269899 -6.467444 2.031300 -0.000001 0.000002 0.000004 3.752676 -3.742137 16.106817 -2.118594 -1.395553 27.989401 -2.244740 -3.840436 20.212939 0.000002 -0.000005 -0.000002 -0.720098 -5.390644 21.401575 0.063647 -5.116371 34.949617 -1.160052 -0.502817 23.141176 -0.000002 0.000000 0.000003 -3.865295 -8.612681 19.737247 3.719123 -4.320715 39.843430 1.954302 -3.225924 24.304530 -0.000001 -0.000000 -0.000003 -8.824456 -11.819527 29.801181 8.981608 -3.362617 40.692648 6.174860 -3.488135 20.080466 -0.000001 0.000000 0.000004 -47.296109 10.458093 21.307706 39.764579 7.597930 -10.762959 14.022837 2.563010 2.998116 -4.405108 0.824317 -3.453897 -0.000000 0.000000 -0.000000 -7.699332 19.997954 -1.786851 29.979777 -2.478437 1.924501 -25.305936 -3.645485 2.156760 -3.539959 -0.006571 0.203700 -0.000000 0.000000 -0.000000 
